<svg width="212" height="30" viewBox="0 0 212 30" fill="none" xmlns="http://www.w3.org/2000/svg">
<path d="M34.3174 7.22612C34.3174 5.63317 35.4007 4.7373 36.9106 4.7373H43.2135C46.6269 4.7373 49.3861 7.0583 49.3861 10.5772C49.3861 12.8982 48.4332 14.4576 46.333 15.4542V15.5187C49.123 15.9163 51.3253 18.2735 51.3253 21.1599C51.3253 25.838 48.239 28.3604 43.7066 28.3604H36.9438C35.4339 28.3604 34.3174 27.3974 34.3174 25.838V7.22612ZM39.2432 14.0936H41.8032C43.4128 14.0936 44.4629 13.1306 44.4629 11.4731C44.4629 9.91372 43.2493 9.11596 41.8032 9.11596H39.2432V14.0936ZM39.2432 23.9817H43.1164C44.8895 23.9817 46.2027 22.9516 46.2027 21.0953C46.2027 19.5359 45.0198 18.4748 42.723 18.4748H39.2432V23.9817Z" fill="#1C1C1C"/>
<path d="M53.1641 7.62639C53.1641 5.96632 53.9867 4.73999 55.7266 4.73999H63.8691C65.4454 4.73999 66.2017 5.86822 66.2017 7.03001C66.2017 8.15823 65.4148 9.32002 63.8691 9.32002H58.0899V14.166H63.4756C65.0852 14.166 65.8721 15.2942 65.8721 16.4534C65.8721 17.5816 65.0494 18.7434 63.4756 18.7434H58.0899V23.7856H64.1654C65.7418 23.7856 66.4955 24.9138 66.4955 26.0756C66.4955 27.2038 65.706 28.3656 64.1654 28.3656H55.6934C54.2473 28.3656 53.1641 27.3717 53.1641 25.8768V7.62639Z" fill="#1C1C1C"/>
<path d="M82.1906 7.6574C82.1906 8.95086 81.3372 10.1126 79.9908 10.1126C78.6444 10.1126 77.5943 9.11867 75.6245 9.11867C74.2116 9.11867 72.9316 9.88287 72.9316 11.2744C72.9316 14.6927 83.8972 12.5034 83.8972 21.0619C83.8972 25.8071 80.0215 28.7581 75.4916 28.7581C72.9623 28.7581 67.5127 28.1617 67.5127 25.0404C67.5127 23.7469 68.366 22.6858 69.7125 22.6858C71.2556 22.6858 73.0951 23.9793 75.2285 23.9793C77.395 23.9793 78.5779 22.7529 78.5779 21.1264C78.5779 17.2125 67.6123 19.567 67.6123 11.8708C67.6123 7.22625 71.3885 4.33984 75.7548 4.33984C77.5943 4.33984 82.1906 5.03692 82.1906 7.6574Z" fill="#1C1C1C"/>
<path d="M89.9393 9.31734H86.3599C84.7836 9.31734 84.127 8.15813 84.127 7.02732C84.127 5.86553 84.9471 4.7373 86.3599 4.7373H98.442C99.8549 4.7373 100.675 5.86553 100.675 7.02732C100.675 8.15555 100.018 9.31734 98.442 9.31734H94.8626V25.9722C94.8626 27.6323 93.8126 28.5618 92.3997 28.5618C90.9868 28.5618 89.9368 27.6323 89.9368 25.9722V9.31734H89.9393Z" fill="#1C1C1C"/>
<path d="M101.761 7.32691C101.761 5.76753 102.681 4.73999 104.321 4.73999H110.133C114.959 4.73999 118.539 7.92588 118.539 12.6686C118.539 17.5119 114.829 20.5326 110.33 20.5326H106.687V25.9723C106.687 27.6324 105.637 28.5618 104.224 28.5618C102.811 28.5618 101.761 27.6324 101.761 25.9723V7.32691ZM106.684 16.1514H110.033C112.1 16.1514 113.414 14.6255 113.414 12.635C113.414 10.6445 112.1 9.11865 110.033 9.11865H106.684V16.1514Z" fill="#1C1C1C"/>
<path d="M120.017 7.32691C120.017 5.73655 120.903 4.73999 122.543 4.73999H128.323C133.379 4.73999 136.498 7.03001 136.498 12.2374C136.498 15.888 133.775 17.9767 130.425 18.5085L136.008 24.5472C136.468 25.0455 136.664 25.5438 136.664 26.0059C136.664 27.2994 135.645 28.5618 134.201 28.5618C133.611 28.5618 132.822 28.3295 132.298 27.6995L125.009 18.7744H124.942V25.9749C124.942 27.635 123.892 28.5644 122.48 28.5644C121.069 28.5644 120.017 27.635 120.017 25.9749V7.32691ZM124.942 15.1909H128.323C130.129 15.1909 131.378 14.0963 131.378 12.2374C131.378 10.345 130.131 9.31744 128.323 9.31744H124.942V15.1909Z" fill="#1C1C1C"/>
<path d="M138.272 7.62639C138.272 5.96632 139.093 4.73999 140.832 4.73999H148.975C150.551 4.73999 151.307 5.86822 151.307 7.03001C151.307 8.15823 150.521 9.32002 148.975 9.32002H143.196V14.166H148.581C150.191 14.166 150.978 15.2942 150.978 16.4534C150.978 17.5816 150.158 18.7434 148.581 18.7434H143.196V23.7856H149.269C150.845 23.7856 151.601 24.9138 151.601 26.0756C151.601 27.2038 150.812 28.3656 149.269 28.3656H140.799C139.356 28.3656 138.272 27.3717 138.272 25.8768V7.62639Z" fill="#1C1C1C"/>
<path d="M167.297 7.6574C167.297 8.95086 166.444 10.1126 165.097 10.1126C163.751 10.1126 162.701 9.11867 160.731 9.11867C159.318 9.11867 158.038 9.88287 158.038 11.2744C158.038 14.6927 169.004 12.5034 169.004 21.0619C169.004 25.8071 165.13 28.7581 160.598 28.7581C158.071 28.7581 152.619 28.1617 152.619 25.0404C152.619 23.7469 153.472 22.6858 154.819 22.6858C156.362 22.6858 158.202 23.9793 160.335 23.9793C162.501 23.9793 163.684 22.7529 163.684 21.1264C163.684 17.2125 152.719 19.567 152.719 11.8708C152.719 7.22625 156.495 4.33984 160.861 4.33984C162.701 4.33984 167.297 5.03692 167.297 7.6574Z" fill="#1C1C1C"/>
<path d="M184.931 7.6574C184.931 8.95086 184.077 10.1126 182.731 10.1126C181.384 10.1126 180.334 9.11867 178.364 9.11867C176.952 9.11867 175.672 9.88287 175.672 11.2744C175.672 14.6927 186.64 12.5034 186.64 21.0619C186.64 25.8071 182.764 28.7581 178.234 28.7581C175.707 28.7581 170.258 28.1617 170.258 25.0404C170.258 23.7469 171.111 22.6858 172.458 22.6858C174.001 22.6858 175.84 23.9793 177.974 23.9793C180.14 23.9793 181.323 22.7529 181.323 21.1264C181.323 17.2125 170.357 19.567 170.357 11.8708C170.357 7.22625 174.134 4.33984 178.5 4.33984C180.332 4.33984 184.931 5.03692 184.931 7.6574Z" fill="#1C1C1C"/>
<path d="M187.82 16.549C187.82 9.64793 192.417 4.33984 199.115 4.33984C205.715 4.33984 210.411 9.81317 210.411 16.549C210.411 23.4164 205.845 28.7581 199.115 28.7581C192.45 28.7607 187.82 23.419 187.82 16.549ZM205.288 16.549C205.288 12.5343 203.219 8.9173 199.115 8.9173C195.012 8.9173 192.943 12.5343 192.943 16.549C192.943 20.5972 194.946 24.1806 199.115 24.1806C203.285 24.1806 205.288 20.5972 205.288 16.549Z" fill="#1C1C1C"/>
<path d="M27.5361 12.6118C27.9526 12.6118 28.2924 12.9552 28.2924 13.376C28.2924 13.7968 27.9526 14.1402 27.5361 14.1402H19.4984C19.2966 14.1402 19.1075 14.0602 18.9645 13.9156C18.8214 13.771 18.7422 13.58 18.7422 13.376C18.7422 12.9552 19.082 12.6118 19.4984 12.6118H27.5361Z" fill="#D24C48"/>
<path d="M23.2056 15.8647C23.4074 15.8647 23.599 15.9448 23.7421 16.0894C23.8826 16.2339 23.9618 16.425 23.9618 16.6289C23.9618 17.0498 23.6246 17.3932 23.2056 17.3932H19.4984C19.082 17.3932 18.7422 17.0498 18.7422 16.6289C18.7422 16.2081 19.082 15.8647 19.4984 15.8647H23.2056Z" fill="#52AC62"/>
<path d="M18.7423 16.629C18.7423 17.0499 19.0821 17.3932 19.4986 17.3932H23.2057C23.6222 17.3932 23.962 17.0499 23.962 16.629C23.962 16.4251 23.8853 16.234 23.7422 16.0894C23.5992 15.9449 23.4076 15.8648 23.2057 15.8648H19.4986C19.0821 15.8648 18.7423 16.2056 18.7423 16.629ZM18.7423 13.376C18.7423 13.58 18.8215 13.771 18.9646 13.9156C19.1077 14.0602 19.2967 14.1402 19.4986 14.1402H27.5363C27.9527 14.1402 28.2925 13.7994 28.2925 13.376C28.2925 12.9552 27.9527 12.6118 27.5363 12.6118H19.4986C19.0821 12.6118 18.7423 12.9552 18.7423 13.376ZM8.46143 19.5748C8.46143 23.5275 11.6448 26.7418 15.5538 26.7418C19.4654 26.7418 22.6462 23.5275 22.6462 19.5748C22.6462 19.4225 22.6411 19.2702 22.6309 19.1178H19.4986C18.1419 19.1178 17.0357 17.9999 17.0357 16.629C17.0357 16.0275 17.2477 15.4569 17.6335 15.0051C17.2452 14.5533 17.0357 13.9827 17.0357 13.3786C17.0357 12.6996 17.3014 12.0645 17.7868 11.5894C17.8021 11.561 17.82 11.5326 17.8379 11.5094C18.4664 10.6187 18.7985 9.57309 18.7985 8.48876C18.7985 5.6101 16.4787 3.26586 13.63 3.26586C10.7813 3.26586 8.46143 5.6101 8.46143 8.48876V19.5748ZM27.5363 10.8872C28.8929 10.8872 29.9992 12.0051 29.9992 13.376C29.9992 14.7495 28.8929 15.8648 27.5363 15.8648H25.5511C25.6303 16.1101 25.6686 16.3657 25.6686 16.629C25.6686 17.4913 25.2241 18.2917 24.5011 18.7435C24.5266 19.0197 24.5394 19.2986 24.5394 19.5748C24.5394 24.5808 20.5103 28.6523 15.5538 28.6523C10.5999 28.6523 6.57081 24.5783 6.57081 19.5748V11.2383L2.27859 9.16776C2.03587 9.05158 1.8928 8.80115 1.91068 8.53265C1.92856 8.26414 2.1023 8.03437 2.35779 7.95175L6.86206 6.46466C7.7435 3.44917 10.513 1.35278 13.6325 1.35278C17.5262 1.35278 20.6917 4.55158 20.6917 8.48617C20.6917 9.30975 20.5537 10.1178 20.2778 10.8872H27.5363Z" fill="#1C1C1C"/>
<path d="M13.319 9.55497C12.5832 9.55497 11.9854 8.95084 11.9854 8.2073C11.9854 7.46375 12.5832 6.85962 13.319 6.85962C14.0548 6.85962 14.6527 7.46375 14.6527 8.2073C14.6501 8.95084 14.0523 9.55497 13.319 9.55497Z" fill="#1C1C1C"/>
</svg>
